<?xml version="1.0" encoding="UTF-8"?>
<svg width="444px" height="185px" viewBox="0 0 444 185" version="1.1" xmlns="http://www.w3.org/2000/svg" xmlns:xlink="http://www.w3.org/1999/xlink">
    <!-- Generator: Sketch 61 (89581) - https://sketch.com -->
    <title>logo</title>
    <desc>Created with Sketch.</desc>
    <g id="Page-1" stroke="none" stroke-width="1" fill="none" fill-rule="evenodd">
        <g id="Artboard" transform="translate(-76.000000, -37.000000)">
            <g id="logo-light" transform="translate(76.000000, 37.000000)">
                <g>
                    <path d="M250.745458,140 L266.919286,30.331543 L252.725926,30.331543 L236.552098,140 L250.745458,140 Z M302.4135,141.897949 C313.471117,141.897949 322.520759,137.496908 329.562426,128.694824 L329.562426,128.694824 L321.475512,120.525391 C314.763923,127.512044 308.40992,131.005371 302.4135,131.005371 C296.692146,131.005371 292.057299,129.244954 288.508959,125.724121 C284.960619,122.203288 282.828865,117.114583 282.113696,110.458008 L282.113696,110.458008 L334.513598,110.458008 C334.73365,108.477539 334.843676,106.387044 334.843676,104.186523 C334.843676,95.3294271 331.872973,87.7926432 325.931567,81.5761719 C319.99016,75.3597005 312.810961,72.2514648 304.393969,72.2514648 C294.491625,72.2514648 286.074633,75.7722982 279.142992,82.8139648 C272.211352,89.8556315 268.745532,98.3826497 268.745532,108.39502 C268.745532,118.187337 271.895027,126.219238 278.194018,132.490723 C284.493009,138.762207 292.56617,141.897949 302.4135,141.897949 Z M321.80559,99.9780273 L283.10393,99.9780273 C284.259203,94.8618164 286.666023,90.8733724 290.324389,88.0126953 C293.982755,85.1520182 298.342537,83.7216797 303.403735,83.7216797 C313.52613,83.7216797 319.660082,89.1404622 321.80559,99.9780273 L321.80559,99.9780273 Z M362.828613,141.897949 C369.32015,141.897949 374.683919,140.027507 378.919922,136.286621 C383.155924,132.545736 385.273926,127.869629 385.273926,122.258301 C385.273926,117.967285 384.118652,114.336426 381.808105,111.365723 C379.497559,108.39502 376.141764,105.699382 371.740723,103.278809 C367.339681,100.858236 364.437744,98.9190267 363.034912,97.4611816 C361.63208,96.0033366 360.930664,94.3666992 360.930664,92.5512695 C360.930664,90.3507487 361.728353,88.5215658 363.32373,87.0637207 C364.919108,85.6058757 366.927083,84.8769531 369.347656,84.8769531 C372.593424,84.8769531 376.994466,86.8024089 382.550781,90.6533203 L382.550781,90.6533203 L390.307617,80.8334961 C382.605794,75.1121419 375.921712,72.2514648 370.255371,72.2514648 C364.258952,72.2514648 359.115234,74.2456868 354.824219,78.2341309 C350.533203,82.2225749 348.387695,86.9949544 348.387695,92.5512695 C348.387695,96.9523112 349.556722,100.720703 351.894775,103.856445 C354.232829,106.992188 358.317546,110.155436 364.148926,113.346191 C369.980306,116.536947 372.895996,119.617676 372.895996,122.588379 C372.895996,124.403809 371.988281,125.957926 370.172852,127.250732 C368.357422,128.543538 366.129395,129.189941 363.48877,129.189941 C360.243001,129.189941 357.341064,128.392253 354.782959,126.796875 C352.224854,125.201497 349.37793,122.725911 346.242188,119.370117 L346.242188,119.370117 L338.485352,129.189941 C342.611328,133.590983 346.544759,136.809245 350.285645,138.844727 C354.02653,140.880208 358.20752,141.897949 362.828613,141.897949 Z M416.147047,141.897949 C422.638583,141.897949 428.002353,140.027507 432.238355,136.286621 C436.474358,132.545736 438.592359,127.869629 438.592359,122.258301 C438.592359,117.967285 437.437086,114.336426 435.126539,111.365723 C432.815992,108.39502 429.460198,105.699382 425.059156,103.278809 C420.658114,100.858236 417.756177,98.9190267 416.353345,97.4611816 C414.950513,96.0033366 414.249097,94.3666992 414.249097,92.5512695 C414.249097,90.3507487 415.046786,88.5215658 416.642164,87.0637207 C418.237541,85.6058757 420.245517,84.8769531 422.66609,84.8769531 C425.911858,84.8769531 430.312899,86.8024089 435.869215,90.6533203 L435.869215,90.6533203 L443.62605,80.8334961 C435.924228,75.1121419 429.240146,72.2514648 423.573804,72.2514648 C417.577385,72.2514648 412.433668,74.2456868 408.142652,78.2341309 C403.851636,82.2225749 401.706129,86.9949544 401.706129,92.5512695 C401.706129,96.9523112 402.875155,100.720703 405.213209,103.856445 C407.551262,106.992188 411.635979,110.155436 417.467359,113.346191 C423.298739,116.536947 426.214429,119.617676 426.214429,122.588379 C426.214429,124.403809 425.306715,125.957926 423.491285,127.250732 C421.675855,128.543538 419.447828,129.189941 416.807203,129.189941 C413.561435,129.189941 410.659498,128.392253 408.101392,126.796875 C405.543287,125.201497 402.696363,122.725911 399.560621,119.370117 L399.560621,119.370117 L391.803785,129.189941 C395.929761,133.590983 399.863192,136.809245 403.604078,138.844727 C407.344963,140.880208 411.525953,141.897949 416.147047,141.897949 Z" id="less" fill="#EC4CB7" fill-rule="nonzero"></path>
                    <path d="M83.5311549,0 L83.567,0.053 L166,43.873512 L165.915,44 L166,44 L166.000158,50.0077777 C162.488969,51.2801749 159.155627,52.9562741 156.000133,55.0360753 L156,49.591 L83.279,10.932 L10,48.666 L10,135.334 L84.234,173.559 L156,135.409 L155.998159,81.6187886 C157.076549,79.6993337 158.44585,77.8971112 160.106061,76.2121212 C161.940686,74.4040846 163.905292,72.9359961 165.999877,71.8078558 L166,141 L165.915,141 L166,141.126488 L83.561,184.95 L83.5311549,185 L83.499,184.984 L83.4688451,185 L83.435,184.95 L0.027,142 L0,142 L0,43 L0.025,43 L83.435,0.05 L83.4688451,0 L83.499,0.016 L83.5311549,0 Z" id="Rectangle-3" fill="#B51881" fill-rule="nonzero" opacity="0.179963235"></path>
                    <path d="M178.850769,46.5092308 C191.921538,46.5092308 203.040769,51.1384615 212.208462,60.3969231 C221.557692,69.6553846 226.232308,80.7746154 226.232308,93.7546154 C226.232308,103.83 223.282308,112.952308 217.382308,121.121538 L217.382308,121.121538 L226.232308,129.835385 L214.931538,141 L206.217692,132.286154 L205.677774,132.660899 C197.560663,138.2203 188.618328,141 178.850769,141 C176.854808,141 174.904353,140.892053 172.999406,140.676159 L172.999927,124.708189 C174.885794,125.040166 176.836075,125.206154 178.850769,125.206154 C187.473846,125.206154 194.871538,122.165385 201.043846,116.083846 C207.216154,109.820769 210.302308,102.377692 210.302308,93.7546154 C210.302308,85.1315385 207.216154,77.7338462 201.043846,71.5615385 C194.871538,65.3892308 187.473846,62.3030769 178.850769,62.3030769 C170.227692,62.3030769 162.784615,65.3892308 156.521538,71.5615385 C150.44,77.7338462 147.399231,85.1315385 147.399231,93.7546154 C147.399231,99.1714287 148.599135,104.122607 150.998944,108.608151 L150.999495,131.940769 C149.091829,130.502532 147.256356,128.893045 145.493077,127.112308 C136.234615,117.944615 131.605385,106.825385 131.605385,93.7546154 C131.605385,80.7746154 136.234615,69.6553846 145.493077,60.3969231 C154.57,51.1384615 165.689231,46.5092308 178.850769,46.5092308 Z" id="GQ" fill="#C00B84" fill-rule="nonzero"></path>
                    <path d="M85.89,141 C89.9746154,141 93.9230769,140.500769 97.7353846,139.502308 C101.547692,138.503846 105.133077,137.074231 108.491538,135.213462 C111.85,133.352692 114.958846,131.106154 117.818077,128.473846 C120.677308,125.841538 123.196154,122.936923 125.374615,119.76 L125.374615,119.76 L125.374615,85.9938462 L85.89,85.9938462 L85.89,101.651538 L109.580769,101.651538 L109.580769,114.586154 C106.585385,117.944615 103.068077,120.554231 99.0288462,122.415 C94.9896154,124.275769 90.61,125.206154 85.89,125.206154 C77.2669231,125.206154 69.8238462,122.165385 63.5607692,116.083846 C57.4792308,109.820769 54.4384615,102.377692 54.4384615,93.7546154 C54.4384615,85.1315385 57.4792308,77.7338462 63.5607692,71.5615385 C69.8238462,65.3892308 77.2669231,62.3030769 85.89,62.3030769 C94.6038462,62.3030769 102.001538,65.3892308 108.083077,71.5615385 L108.083077,71.5615385 L119.383846,60.3969231 C115.026923,56.04 109.989231,52.6361538 104.270769,50.1853846 C98.5523077,47.7346154 92.4253846,46.5092308 85.89,46.5092308 C72.8192308,46.5092308 61.7,51.1384615 52.5323077,60.3969231 C43.2738462,69.6553846 38.6446154,80.7746154 38.6446154,93.7546154 C38.6446154,106.825385 43.2738462,117.944615 52.5323077,127.112308 C61.7,136.370769 72.8192308,141 85.89,141 Z" id="Path" fill="#C00B84" fill-rule="nonzero"></path>
                </g>
            </g>
        </g>
    </g>
</svg>