<?xml version="1.0" encoding="UTF-8"?>
<svg width="227px" height="185px" viewBox="0 0 227 185" version="1.1" xmlns="http://www.w3.org/2000/svg" xmlns:xlink="http://www.w3.org/1999/xlink">
    <!-- Generator: Sketch 61 (89581) - https://sketch.com -->
    <title>logo-sm</title>
    <desc>Created with Sketch.</desc>
    <g id="Page-1" stroke="none" stroke-width="1" fill="none" fill-rule="evenodd">
        <g id="Artboard-Copy-4" transform="translate(-47.000000, -37.000000)">
            <g id="logo-sm-light" transform="translate(47.000000, 37.000000)">
                <g id="logo-sm-light-copy-2">
                    <polygon id="Rectangle" fill="#B51881" fill-rule="nonzero" opacity="0.179963235" points="0 142 0 43.0132471 83.5311549 0 166.000459 44 166.000459 141.509231 82 185"></polygon>
                    <path d="M178.850769,46.5092308 C191.921538,46.5092308 203.040769,51.1384615 212.208462,60.3969231 C221.557692,69.6553846 226.232308,80.7746154 226.232308,93.7546154 C226.232308,103.83 223.282308,112.952308 217.382308,121.121538 L217.382308,121.121538 L226.232308,129.835385 L214.931538,141 L206.217692,132.286154 L205.677774,132.660899 C197.560663,138.2203 188.618328,141 178.850769,141 C176.854808,141 174.904353,140.892053 172.999406,140.676159 L172.999927,124.708189 C174.885794,125.040166 176.836075,125.206154 178.850769,125.206154 C187.473846,125.206154 194.871538,122.165385 201.043846,116.083846 C207.216154,109.820769 210.302308,102.377692 210.302308,93.7546154 C210.302308,85.1315385 207.216154,77.7338462 201.043846,71.5615385 C194.871538,65.3892308 187.473846,62.3030769 178.850769,62.3030769 C170.227692,62.3030769 162.784615,65.3892308 156.521538,71.5615385 C150.44,77.7338462 147.399231,85.1315385 147.399231,93.7546154 C147.399231,99.1714287 148.599135,104.122607 150.998944,108.608151 L150.999495,131.940769 C149.091829,130.502532 147.256356,128.893045 145.493077,127.112308 C136.234615,117.944615 131.605385,106.825385 131.605385,93.7546154 C131.605385,80.7746154 136.234615,69.6553846 145.493077,60.3969231 C154.57,51.1384615 165.689231,46.5092308 178.850769,46.5092308 Z" id="GQ" fill="#C00B84" fill-rule="nonzero"></path>
                    <path d="M85.89,141 C89.9746154,141 93.9230769,140.500769 97.7353846,139.502308 C101.547692,138.503846 105.133077,137.074231 108.491538,135.213462 C111.85,133.352692 114.958846,131.106154 117.818077,128.473846 C120.677308,125.841538 123.196154,122.936923 125.374615,119.76 L125.374615,119.76 L125.374615,85.9938462 L85.89,85.9938462 L85.89,101.651538 L109.580769,101.651538 L109.580769,114.586154 C106.585385,117.944615 103.068077,120.554231 99.0288462,122.415 C94.9896154,124.275769 90.61,125.206154 85.89,125.206154 C77.2669231,125.206154 69.8238462,122.165385 63.5607692,116.083846 C57.4792308,109.820769 54.4384615,102.377692 54.4384615,93.7546154 C54.4384615,85.1315385 57.4792308,77.7338462 63.5607692,71.5615385 C69.8238462,65.3892308 77.2669231,62.3030769 85.89,62.3030769 C94.6038462,62.3030769 102.001538,65.3892308 108.083077,71.5615385 L108.083077,71.5615385 L119.383846,60.3969231 C115.026923,56.04 109.989231,52.6361538 104.270769,50.1853846 C98.5523077,47.7346154 92.4253846,46.5092308 85.89,46.5092308 C72.8192308,46.5092308 61.7,51.1384615 52.5323077,60.3969231 C43.2738462,69.6553846 38.6446154,80.7746154 38.6446154,93.7546154 C38.6446154,106.825385 43.2738462,117.944615 52.5323077,127.112308 C61.7,136.370769 72.8192308,141 85.89,141 Z" id="Path" fill="#C00B84" fill-rule="nonzero"></path>
                </g>
            </g>
        </g>
    </g>
</svg>